<svg xmlns="http://www.w3.org/2000/svg" width="256" height="256" viewBox="0 0 256 256">
<defs><radialGradient id="cor" cx="40%" cy="30%" r="85%"><stop offset="0" stop-color="#FAD9C0"/><stop offset="1" stop-color="#ECA078"/></radialGradient></defs>
<g transform="translate(8,12) scale(1.62)">
<rect x="8" y="14" width="132" height="128" rx="34" fill="#C98A4A"/><rect x="8" y="8" width="132" height="128" rx="34" fill="url(#cor)"/><ellipse cx="44" cy="38" rx="34" ry="17" fill="#fff" opacity="0.28"/>
<path d="M52,42 L40,16 L70,40 Z" fill="#E59B5B" stroke="#B86A2E" stroke-width="2.4"/><path d="M96,42 L108,16 L78,40 Z" fill="#E59B5B" stroke="#B86A2E" stroke-width="2.4"/>
<ellipse cx="74" cy="92" rx="26" ry="22" fill="#FFF8ED"/>
<circle cx="60" cy="74" r="7" fill="#3A2A18"/><circle cx="88" cy="74" r="7" fill="#3A2A18"/><circle cx="58" cy="71" r="2.2" fill="#fff"/><circle cx="86" cy="71" r="2.2" fill="#fff"/>
<ellipse cx="74" cy="88" rx="6" ry="4.5" fill="#5A3A22"/><path d="M74,92 q-8,8 -16,3 M74,92 q8,8 16,3" fill="none" stroke="#A06A38" stroke-width="2.4" stroke-linecap="round"/>
</g>
</svg>
