<svg xmlns="http://www.w3.org/2000/svg" width="256" height="256" viewBox="0 0 256 256">
<defs><radialGradient id="ali" cx="40%" cy="30%" r="85%"><stop offset="0" stop-color="#CDEFE0"/><stop offset="1" stop-color="#76CBA6"/></radialGradient></defs>
<g transform="translate(8,12) scale(1.62)">
<rect x="8" y="14" width="132" height="128" rx="34" fill="#1D9E75"/><rect x="8" y="8" width="132" height="128" rx="34" fill="url(#ali)"/><ellipse cx="44" cy="38" rx="34" ry="17" fill="#fff" opacity="0.28"/>
<line x1="58" y1="24" x2="50" y2="8" stroke="#3FAE86" stroke-width="3.4" stroke-linecap="round"/><circle cx="49" cy="6" r="5" fill="#F6C453"/><line x1="90" y1="24" x2="98" y2="8" stroke="#3FAE86" stroke-width="3.4" stroke-linecap="round"/><circle cx="99" cy="6" r="5" fill="#F6C453"/>
<path d="M48,72 q12,-14 22,0 q-11,16 -22,0 Z" fill="#243B2E"/><path d="M100,72 q-12,-14 -22,0 q11,16 22,0 Z" fill="#243B2E"/><circle cx="56" cy="70" r="2.4" fill="#9FE9C8"/><circle cx="92" cy="70" r="2.4" fill="#9FE9C8"/>
<path d="M66,98 q8,6 16,0" fill="none" stroke="#13674C" stroke-width="2.6" stroke-linecap="round"/>
</g>
</svg>
